<?xml version="1.0" standalone="no"?><!DOCTYPE svg PUBLIC "-//W3C//DTD SVG 1.1//EN" "http://www.w3.org/Graphics/SVG/1.1/DTD/svg11.dtd"><svg t="1630400812153" class="icon" viewBox="0 0 1024 1024" version="1.1" xmlns="http://www.w3.org/2000/svg" p-id="4113" xmlns:xlink="http://www.w3.org/1999/xlink" width="200" height="200"><defs><style type="text/css"></style></defs><path d="M769.48 364.51c-0.05 0.61-0.09 1.21-0.14 1.79-1.51 18.44-4.56 32.71-7.38 41.79-2.75-9.6-5.42-18.56-8-26.94-20.75-66.68-37.7-96.8-59.6-124.91l-2.55-3.24c-6.63-8.45-16.65-21.23-24.12-33.53-5.05-8.3-7.66-14.26-9-18.48-1.48-4.84-1.2-7.39-0.85-8.57 0.2-0.64 0.56-1.85 3.42-2.8a21.29 21.29 0 0 1 6.64-1h1.39c10.85 0.51 25.23 7 39.12 17.87a152.44 152.44 0 0 1 29.09 30.65 177.14 177.14 0 0 1 21.25 39c12.57 32.07 12.25 68.44 10.73 88.37zM416.1 203.8c-1 4.09-3.38 10.35-8.92 19.61-7.15 12-16.76 24.4-23.11 32.64l-2.43 3.14C360.69 286.52 344.51 315.72 325 380c-2.45 8.06-5 16.67-7.52 25.89a189.31 189.31 0 0 1-6.1-37.34c-0.36-4.9-0.64-11-0.63-18.06 0-19.15 2.3-44.77 11.46-69.14 18.94-50.4 55.52-82 79.19-86.8a23.74 23.74 0 0 1 11.9 0.23c2.66 0.85 3 1.94 3.18 2.52 0.21 0.82 0.52 2.75-0.38 6.5z" fill="#CE7C45" opacity=".55" p-id="4114"></path><path d="M788.78 965.34H568.64a8 8 0 0 0 3.76-6.78V899.8l10.32 16.92a8 8 0 0 0 10.18 3.09c16.2-7.48 32.6-25 45-47.95 12.62-23.42 18.77-48.72 16.88-69.4a68.07 68.07 0 0 0-3.07-15.18C724.37 821.06 784.9 887 788.78 965.34zM517.38 965.34H302.91c2.63-51.05 30.41-100.44 78.88-139.88a282.64 282.64 0 0 1 50.6-32.73 70.59 70.59 0 0 0-1.55 9.73c-1.89 20.68 4.26 46 16.88 69.4 12.38 23 28.78 40.47 45 47.95a8 8 0 0 0 10.18-3.09l10.74-17.6v59.44a8 8 0 0 0 3.74 6.78z" fill="#507FA1" p-id="4115"></path><path d="M789.61 462.16a6 6 0 0 1-7.89 3.11c-3.14-1.37-10.45 0-17.25 4.71a32.59 32.59 0 0 0-5.87 5.27v-15.78c8.11-5.27 19.61-8.83 27.91-5.21a6 6 0 0 1 3.1 7.9zM297.63 459.47v15.79a32.33 32.33 0 0 0-5.88-5.28c-6.8-4.69-14.11-6.08-17.24-4.71a6 6 0 0 1-4.79-11c8.28-3.63 19.79-0.07 27.91 5.2z" fill="#FFBAB3" p-id="4116"></path><path d="M793.64 962a8 8 0 0 1-8 8H283.36a8 8 0 0 1-8-8c0-30.3 8-60.14 23.82-88.67 14.64-26.41 35.22-50.5 61.17-71.62a303.72 303.72 0 0 1 71.35-43 56.56 56.56 0 0 0-10.65 22.69 282.64 282.64 0 0 0-50.6 32.73C322 853.56 294.2 903 291.57 954h485.87c-3.88-78.32-64.44-144.28-137.09-178.06a55.35 55.35 0 0 0-6.86-14.14 52 52 0 0 0-9-10.18l-0.18-0.16a288.17 288.17 0 0 1 87.52 50.33c25.08 21.07 44.94 45.18 59 71.66 15.17 28.44 22.81 58.23 22.81 88.55z" fill="#31296B" p-id="4117"></path><path d="M528.11 137.35a228.9 228.9 0 0 0-117.81 32.29 19 19 0 0 1 10.09 11.62c0.1 0.33 0.2 0.66 0.28 1a214.2 214.2 0 0 1 209.9-2.83 20.81 20.81 0 0 1 0.66-3 19.15 19.15 0 0 1 8-10.67 229.13 229.13 0 0 0-111.12-28.41z" fill="#FFBAB3" p-id="4118"></path><path d="M523.69 570h-1.29c-16.07-0.68-26.22-14-27.33-15.54l-1.91-2.63v-131.1a10 10 0 1 1 20 0V544.8c2.33 2.26 6.13 5.07 10.16 5.21s8.6-2.55 13.31-8a10 10 0 1 1 15.12 13.09c-8.56 9.9-18 14.9-28.06 14.9z" fill="#F47A8F" p-id="4119"></path><path d="M613.32 438.32c0 17.54 12.52 31.76 27.95 31.76s27.94-14.22 27.94-31.76-12.51-31.75-27.94-31.75-27.95 14.22-27.95 31.75zM371.16 438.32c0 17.54 12.51 31.76 27.95 31.76s27.94-14.22 27.94-31.76-12.51-31.75-27.94-31.75-27.95 14.22-27.95 31.75zM429.21 382.35h-0.09l-60.07-0.87a6 6 0 1 1 0.18-12l60.06 0.86a6 6 0 0 1-0.08 12zM671.11 382.35H671l-60-0.87a6 6 0 0 1 0.09-12h0.08l60.07 0.86a6 6 0 0 1-0.08 12z" fill="#31296B" p-id="4120"></path><path d="M562.19 628.59H562l-74-1.07a10 10 0 1 1 0.29-20l74 1.07a10 10 0 0 1-0.14 20z" fill="#E83F63" p-id="4121"></path><path d="M737.24 408.2c0.35 1.24 0.7 2.5 1 3.76a16.19 16.19 0 0 0 4.31 7.81v-13.64q-2.65 0.93-5.31 2.07z" fill="#31296B" p-id="4122"></path><path d="M801.65 510.92c-11.56 16.83-27.62 29.19-45.22 34.79-1.21 0.39-2.43 0.74-3.64 1.06q2-8.89 3.36-18c12.45-5.1 23.78-14.51 32.31-26.93 9.55-13.92 14.32-29.79 13.44-44.7-0.84-14.15-6.74-25.68-16.62-32.46a36.92 36.92 0 0 0-21.16-6.3 45.17 45.17 0 0 0-5.52 0.34v-16.09a59.36 59.36 0 0 1 6.9-0.23 52.35 52.35 0 0 1 28.84 9.11c14 9.63 22.39 25.51 23.53 44.7 1.13 18.45-4.67 37.87-16.22 54.71z" fill="#FFBAB3" p-id="4123"></path><path d="M758.6 402.63V495a234 234 0 0 1-2.45 33.81q-1.32 9.09-3.36 18A231.22 231.22 0 0 1 596.15 715.3q-7.9 2.44-16 4.29a234.08 234.08 0 0 1-97 1.52q-8.08-1.61-16-3.76a231.15 231.15 0 0 1-163.7-170.58q-2-8.89-3.36-18a232.61 232.61 0 0 1-2.46-33.77v-92.36a67.87 67.87 0 0 1 14.43 3l1.57 0.52V495a213.27 213.27 0 0 0 1.08 21.55q0.81 8.24 2.27 16.3t3.52 16.11a215.34 215.34 0 0 0 146.64 151.67q7.88 2.34 16 4.08a215.17 215.17 0 0 0 97-1.64q8.13-2 16-4.67a215.38 215.38 0 0 0 139.58-149.46q2.07-8 3.53-16.11t2.27-16.29A213.32 213.32 0 0 0 742.6 495v-88.87l1.56-0.52a68.49 68.49 0 0 1 14.44-2.98z" fill="#FFBAB3" p-id="4124"></path><path d="M762.36 259.08c-26.33-67.19-84.74-106.77-117.42-96a24.26 24.26 0 0 0-5.69 2.7 19.15 19.15 0 0 0-8 10.67 20.81 20.81 0 0 0-0.66 3c-2.93 18.83 16.74 45.89 37.31 72.11l2.5 3.2c24.06 30.89 42 64.71 66.86 153.46q2.65-1.14 5.36-2.07l1.56-0.52a68.49 68.49 0 0 1 14.44-3 59.36 59.36 0 0 1 6.9-0.23c5.21-16.13 9.31-41.34 9.31-68.67-0.02-24.89-3.42-51.53-12.47-74.65z m-4.22 94.09c0 0.61-0.09 1.21-0.14 1.79-1.51 18.44-4.56 32.71-7.38 41.79-2.75-9.6-5.42-18.56-8-26.94C721.85 303.13 704.9 273 683 244.9l-2.53-3.23c-6.63-8.45-16.65-21.23-24.12-33.53-5.05-8.3-7.66-14.26-9-18.48-1.48-4.84-1.2-7.39-0.85-8.57 0.2-0.64 0.56-1.85 3.42-2.8a21.29 21.29 0 0 1 6.64-1h1.39c10.85 0.51 25.23 6.95 39.12 17.87a152.44 152.44 0 0 1 29.09 30.65 177.14 177.14 0 0 1 21.25 39c12.59 32.06 12.22 68.43 10.73 88.36zM313.63 406.13v12.53q3.22-2.67 4.76-8.35l0.57-2.11a72.35 72.35 0 0 0-5.33-2.07z" fill="#31296B" p-id="4125"></path><path d="M303.44 546.77c-1.21-0.32-2.43-0.67-3.65-1.06-17.6-5.6-33.66-18-45.21-34.79s-17.32-36.26-16.22-54.71c1.14-19.19 9.49-35.07 23.53-44.7a52.62 52.62 0 0 1 29.89-9.14 57.79 57.79 0 0 1 5.85 0.27v16.1a45.21 45.21 0 0 0-5.53-0.34 37 37 0 0 0-21.16 6.3c-9.87 6.78-15.77 18.31-16.61 32.46-0.89 14.91 3.88 30.78 13.44 44.7 8.52 12.42 19.86 21.83 32.31 26.93q1.32 9.09 3.36 17.98z" fill="#FFBAB3" p-id="4126"></path><path d="M420.67 182.26c-0.08-0.34-0.18-0.67-0.28-1a19 19 0 0 0-10.09-11.62 27.1 27.1 0 0 0-3.46-1.39c-16.16-5.21-37.79 2.3-59.35 20.59a168.92 168.92 0 0 0-29.82 33.51 199 199 0 0 0-21.81 42.07c-13.51 36-13.22 74-11.85 93.5 1.23 17.32 4.07 33.16 7.77 44.45a57.79 57.79 0 0 1 5.85 0.27 67.87 67.87 0 0 1 14.43 3l1.57 0.52c1.79 0.62 3.57 1.3 5.33 2.07 23.68-87.26 40.83-120.35 64-150.61l2.39-3.11c20.5-26.51 40.02-53.89 35.32-72.25z m-15.91 10.2c-1 4.09-3.38 10.35-8.92 19.61-7.15 12-16.76 24.4-23.11 32.64l-2.43 3.14c-20.95 27.33-37.13 56.53-56.67 120.85-2.45 8.06-4.95 16.67-7.52 25.89a189.31 189.31 0 0 1-6.1-37.34c-0.36-4.9-0.64-11-0.63-18.06 0-19.15 2.3-44.77 11.46-69.14 18.94-50.4 55.52-82 79.19-86.8a23.74 23.74 0 0 1 11.9 0.23c2.66 0.85 3 1.94 3.18 2.52 0.24 0.78 0.55 2.71-0.35 6.46z" fill="#31296B" p-id="4127"></path><path d="M483.14 721.11v31.07a8 8 0 0 1-6 7.73l-0.73 0.2a41 41 0 0 1-2-13.73 7.81 7.81 0 0 0-0.26-2.22 8 8 0 0 0-7.06-5.93v-20.88q7.91 2.16 16.05 3.76zM596.15 715.3v22.91a7.92 7.92 0 0 0-4.68 1.73 7.67 7.67 0 0 0-1.54 1.63 8 8 0 0 0-1.48 4.81 41.69 41.69 0 0 1-1.2 11l-0.81-0.19a8 8 0 0 1-6.28-7.81v-29.79q8.07-1.84 15.99-4.29z" fill="#FFBAB3" p-id="4128"></path><path d="M561.06 888.46v58.76a8 8 0 0 1-3.76 6.78H506a8 8 0 0 1-3.76-6.78v-59.44l16-26.23v77.67h26.78v-77zM617.8 766.64v-0.42l-1.72-0.6q0.3 0.3 0.57 0.6c0.41 0.43 0.8 0.86 1.18 1.31l-0.03-0.89z m-96 57.41l0.32 0.54 0.29-0.48z" fill="#31296B" p-id="4129"></path><path d="M643.42 791.12a68.07 68.07 0 0 0-3.07-15.18 55.35 55.35 0 0 0-6.86-14.14 52 52 0 0 0-9-10.18l-0.18-0.16a62.8 62.8 0 0 0-25.86-13 8 8 0 0 0-2.28-0.24 7.92 7.92 0 0 0-4.68 1.73 7.67 7.67 0 0 0-1.54 1.63 8 8 0 0 0-1.48 4.81 41.69 41.69 0 0 1-1.2 11 1.06 1.06 0 0 1 0 0.19 45.72 45.72 0 0 1-13.47 22c-10.81 10.09-26.81 16.76-42.27 18-15.46-1.28-31.46-7.95-42.27-18a46.54 46.54 0 0 1-12.73-19.44 41 41 0 0 1-2-13.73 7.81 7.81 0 0 0-0.26-2.22 8 8 0 0 0-9.71-5.71c-14 3.59-25.1 10.51-32.79 20.25a56.56 56.56 0 0 0-10.65 22.69 70.59 70.59 0 0 0-1.55 9.73c-1.89 20.68 4.26 46 16.88 69.4 12.38 23 28.78 40.47 45 48a8 8 0 0 0 10.18-3.09l10.74-17.6 16-26.23 12.81-21 0.37-0.61 0.38 0.62 13.22 21.68 16 26.22 10.32 16.92a8 8 0 0 0 10.18 3.09c16.2-7.48 32.6-25 45-48 12.51-23.45 18.66-48.75 16.77-69.43z m-121.33 33.47l-8.88 14.56-10.93 17.9-20.38 33.4c-11.1-7.41-22.49-20.91-31.43-37.52-11.17-20.72-16.65-42.73-15-60.36 0.17-1.82 0.4-3.57 0.72-5.27a43.34 43.34 0 0 1 5.81-15.49 38.48 38.48 0 0 1 17.28-14.68 56.83 56.83 0 0 0 1.81 7.55 0.14 0.14 0 0 1 0 0.06 61.69 61.69 0 0 0 17.2 26.56c9.57 8.93 22.05 15.61 35.28 19.31l3.45 5.65 4.75 7.79 0.61 0.06z m90.36 28.34c-8.94 16.61-20.33 30.07-31.45 37.52l-20-32.71-11-18.17-9.14-15-0.15-0.24h0.31l4.86-8 3.52-5.77c13.23-3.69 25.71-10.36 35.27-19.29 9.16-8.55 15.26-18.6 18.07-29.62 0-0.09 0-0.19 0.07-0.29 0.35-1.4 0.65-2.82 0.89-4.26a40.46 40.46 0 0 1 12.4 8.49l1.72 0.6v1.31q8.25 9.68 9.66 25l0.06 0.72c1.46 17.59-4.08 39.28-15.09 59.71z" fill="#31296B" p-id="4130"></path><path d="M540.68 824.35l0.15 0.24 0.16-0.26z" fill="#31296B" p-id="4131"></path></svg>